<?xml version="1.0" encoding="UTF-8" standalone="no"?>
<svg width="800" height="600" xmlns="http://www.w3.org/2000/svg">
  <style>
    .title { font: bold 24px sans-serif; fill: #ec4899; }
    .subtitle { font: bold 18px sans-serif; fill: #db2777; }
    .label { font: 14px sans-serif; fill: #f3f4f6; }
    .small-label { font: 12px sans-serif; fill: #d1d5db; }
    .box { fill: #1f2937; stroke: #ec4899; stroke-width: 2; rx: 10; ry: 10; }
    .component { fill: #374151; stroke: #f472b6; stroke-width: 1.5; rx: 8; ry: 8; }
    .arrow { stroke: #ec4899; stroke-width: 2; fill: none; marker-end: url(#arrowhead); }
    .dashed { stroke-dasharray: 5,5; }
    .text-center { text-anchor: middle; }
    .text-right { text-anchor: end; }
    .hash { fill: #db2777; r: 10; }
    .env-data { fill: #f472b6; r: 8; }
    .pulse { fill: #fbcfe8; r: 5; }
  </style>
  
  <defs>
    <marker id="arrowhead" markerWidth="10" markerHeight="7" refX="9" refY="3.5" orient="auto">
      <polygon points="0 0, 10 3.5, 0 7" fill="#ec4899" />
    </marker>
  </defs>
  
  <rect width="800" height="600" fill="#111827" />
  
  <text x="400" y="40" class="title text-center">環境同期型 Proof of History (PoH)</text>
  <text x="400" y="70" class="subtitle text-center">環境データを活用した暗号学的時間証明</text>
  
  <!-- Main Components -->
  <rect x="50" y="100" width="700" height="450" class="box" />
  
  <!-- PoH Chain Component -->
  <rect x="100" y="130" width="600" height="100" class="component" />
  <text x="400" y="150" class="subtitle text-center">PoHチェーン</text>
  <text x="400" y="175" class="label text-center">暗号学的に検証可能な時間の経過を証明するハッシュ連鎖</text>
  
  <circle cx="150" cy="200" class="hash" />
  <circle cx="200" cy="200" class="hash" />
  <circle cx="250" cy="200" class="hash" />
  <circle cx="300" cy="200" class="hash" />
  <circle cx="350" cy="200" class="hash" />
  <circle cx="400" cy="200" class="hash" />
  <circle cx="450" cy="200" class="hash" />
  <circle cx="500" cy="200" class="hash" />
  <circle cx="550" cy="200" class="hash" />
  <circle cx="600" cy="200" class="hash" />
  <circle cx="650" cy="200" class="hash" />
  
  <path d="M150 200 L200 200" class="arrow" />
  <path d="M200 200 L250 200" class="arrow" />
  <path d="M250 200 L300 200" class="arrow" />
  <path d="M300 200 L350 200" class="arrow" />
  <path d="M350 200 L400 200" class="arrow" />
  <path d="M400 200 L450 200" class="arrow" />
  <path d="M450 200 L500 200" class="arrow" />
  <path d="M500 200 L550 200" class="arrow" />
  <path d="M550 200 L600 200" class="arrow" />
  <path d="M600 200 L650 200" class="arrow" />
  
  <text x="150" y="220" class="small-label text-center">H₁</text>
  <text x="200" y="220" class="small-label text-center">H₂</text>
  <text x="250" y="220" class="small-label text-center">H₃</text>
  <text x="300" y="220" class="small-label text-center">H₄</text>
  <text x="350" y="220" class="small-label text-center">H₅</text>
  <text x="400" y="220" class="small-label text-center">H₆</text>
  <text x="450" y="220" class="small-label text-center">H₇</text>
  <text x="500" y="220" class="small-label text-center">H₈</text>
  <text x="550" y="220" class="small-label text-center">H₉</text>
  <text x="600" y="220" class="small-label text-center">H₁₀</text>
  <text x="650" y="220" class="small-label text-center">H₁₁</text>
  
  <!-- Environmental Data Component -->
  <rect x="100" y="250" width="280" height="150" class="component" />
  <text x="240" y="270" class="subtitle text-center">環境データ統合</text>
  <text x="240" y="295" class="label text-center">外部環境データをハッシュ入力に含める</text>
  
  <circle cx="150" cy="330" class="env-data" />
  <circle cx="200" cy="330" class="env-data" />
  <circle cx="250" cy="330" class="env-data" />
  <circle cx="300" cy="330" class="env-data" />
  
  <path d="M150 330 L150 250" class="arrow dashed" transform="rotate(180 150 290)" />
  <path d="M200 330 L200 250" class="arrow dashed" transform="rotate(180 200 290)" />
  <path d="M250 330 L250 250" class="arrow dashed" transform="rotate(180 250 290)" />
  <path d="M300 330 L300 250" class="arrow dashed" transform="rotate(180 300 290)" />
  
  <text x="150" y="350" class="small-label text-center">気象</text>
  <text x="200" y="350" class="small-label text-center">市場</text>
  <text x="250" y="350" class="small-label text-center">地磁気</text>
  <text x="300" y="350" class="small-label text-center">DEX</text>
  
  <text x="240" y="380" class="small-label text-center">next_hash = hash(previous_hash || counter || env_data_hash)</text>
  
  <!-- Heartbeat Integration Component -->
  <rect x="420" y="250" width="280" height="150" class="component" />
  <text x="560" y="270" class="subtitle text-center">ハートビート統合</text>
  <text x="560" y="295" class="label text-center">PoHとハートビートの連携</text>
  
  <path d="M450 330 C470 310, 490 350, 510 330" stroke="#f472b6" stroke-width="2" fill="none" />
  <path d="M510 330 C530 310, 550 350, 570 330" stroke="#f472b6" stroke-width="2" fill="none" />
  <path d="M570 330 C590 310, 610 350, 630 330" stroke="#f472b6" stroke-width="2" fill="none" />
  <path d="M630 330 C650 310, 670 350, 690 330" stroke="#f472b6" stroke-width="2" fill="none" />
  
  <circle cx="450" cy="330" class="pulse" />
  <circle cx="510" cy="330" class="pulse" />
  <circle cx="570" cy="330" class="pulse" />
  <circle cx="630" cy="330" class="pulse" />
  <circle cx="690" cy="330" class="pulse" />
  
  <path d="M450 330 L450 250" class="arrow dashed" transform="rotate(180 450 290)" />
  <path d="M510 330 L510 250" class="arrow dashed" transform="rotate(180 510 290)" />
  <path d="M570 330 L570 250" class="arrow dashed" transform="rotate(180 570 290)" />
  <path d="M630 330 L630 250" class="arrow dashed" transform="rotate(180 630 290)" />
  
  <text x="560" y="380" class="small-label text-center">heartbeat = {poh_slot, poh_hash, node_id, sequence, timestamp, signature}</text>
  
  <!-- Regional Validation Component -->
  <rect x="100" y="420" width="600" height="100" class="component" />
  <text x="400" y="440" class="subtitle text-center">地域ベースの検証</text>
  <text x="400" y="465" class="label text-center">地域特性に基づく検証プロセス</text>
  
  <rect x="150" y="480" width="100" height="30" fill="#1f2937" stroke="#f472b6" rx="5" ry="5" />
  <text x="200" y="500" class="small-label text-center">アジア地域</text>
  
  <rect x="300" y="480" width="100" height="30" fill="#1f2937" stroke="#f472b6" rx="5" ry="5" />
  <text x="350" y="500" class="small-label text-center">ヨーロッパ地域</text>
  
  <rect x="450" y="480" width="100" height="30" fill="#1f2937" stroke="#f472b6" rx="5" ry="5" />
  <text x="500" y="500" class="small-label text-center">北米地域</text>
  
  <rect x="600" y="480" width="100" height="30" fill="#1f2937" stroke="#f472b6" rx="5" ry="5" />
  <text x="650" y="500" class="small-label text-center">南米地域</text>
  
  <path d="M200 480 L200 400" class="arrow" />
  <path d="M350 480 L350 400" class="arrow" />
  <path d="M500 480 L500 400" class="arrow" />
  <path d="M650 480 L650 400" class="arrow" />
  
  <!-- Formula -->
  <rect x="50" y="530" width="700" height="40" fill="none" stroke="#ec4899" rx="5" ry="5" />
  <text x="400" y="555" class="label text-center">環境同期型PoHは、物理的な環境と同期して動作し、より自然なリズムでブロック生成と検証を行います</text>
</svg>