<?xml version="1.0" encoding="UTF-8" standalone="no"?>
<svg width="800" height="600" xmlns="http://www.w3.org/2000/svg">
  <style>
    .title { font: bold 24px sans-serif; fill: #ec4899; }
    .subtitle { font: bold 18px sans-serif; fill: #db2777; }
    .label { font: 14px sans-serif; fill: #f3f4f6; }
    .small-label { font: 12px sans-serif; fill: #d1d5db; }
    .box { fill: #1f2937; stroke: #ec4899; stroke-width: 2; rx: 10; ry: 10; }
    .component { fill: #374151; stroke: #f472b6; stroke-width: 1.5; rx: 8; ry: 8; }
    .arrow { stroke: #ec4899; stroke-width: 2; fill: none; marker-end: url(#arrowhead); }
    .dashed { stroke-dasharray: 5,5; }
    .text-center { text-anchor: middle; }
    .text-right { text-anchor: end; }
  </style>
  
  <defs>
    <marker id="arrowhead" markerWidth="10" markerHeight="7" refX="9" refY="3.5" orient="auto">
      <polygon points="0 0, 10 3.5, 0 7" fill="#ec4899" />
    </marker>
  </defs>
  
  <rect width="800" height="600" fill="#111827" />
  
  <text x="400" y="40" class="title text-center">PulseChain アーキテクチャ</text>
  <text x="400" y="70" class="subtitle text-center">環境同期型PoHとハートビートプロトコル</text>
  
  <!-- Main Architecture Box -->
  <rect x="50" y="100" width="700" height="450" class="box" />
  
  <!-- Core Components -->
  <rect x="100" y="130" width="600" height="100" class="component" />
  <text x="400" y="150" class="subtitle text-center">コアレイヤー</text>
  
  <rect x="120" y="170" width="120" height="40" fill="#1f2937" stroke="#f472b6" rx="5" ry="5" />
  <text x="180" y="195" class="small-label text-center">環境同期型PoH</text>
  
  <rect x="260" y="170" width="120" height="40" fill="#1f2937" stroke="#f472b6" rx="5" ry="5" />
  <text x="320" y="195" class="small-label text-center">ハートビートプロトコル</text>
  
  <rect x="400" y="170" width="120" height="40" fill="#1f2937" stroke="#f472b6" rx="5" ry="5" />
  <text x="460" y="195" class="small-label text-center">地域ベースのシャーディング</text>
  
  <rect x="540" y="170" width="120" height="40" fill="#1f2937" stroke="#f472b6" rx="5" ry="5" />
  <text x="600" y="195" class="small-label text-center">マイクロチェーン</text>
  
  <!-- Environmental PoH Component -->
  <rect x="100" y="250" width="280" height="120" class="component" />
  <text x="240" y="270" class="subtitle text-center">環境同期型PoH</text>
  
  <rect x="120" y="290" width="120" height="30" fill="#1f2937" stroke="#f472b6" rx="5" ry="5" />
  <text x="180" y="310" class="small-label text-center">環境データ統合</text>
  
  <rect x="120" y="330" width="120" height="30" fill="#1f2937" stroke="#f472b6" rx="5" ry="5" />
  <text x="180" y="350" class="small-label text-center">時空間検証</text>
  
  <rect x="250" y="290" width="120" height="30" fill="#1f2937" stroke="#f472b6" rx="5" ry="5" />
  <text x="310" y="310" class="small-label text-center">環境変動適応</text>
  
  <rect x="250" y="330" width="120" height="30" fill="#1f2937" stroke="#f472b6" rx="5" ry="5" />
  <text x="310" y="350" class="small-label text-center">低エネルギー検証</text>
  
  <!-- Heartbeat Protocol Component -->
  <rect x="420" y="250" width="280" height="120" class="component" />
  <text x="560" y="270" class="subtitle text-center">ハートビートプロトコル</text>
  
  <rect x="440" y="290" width="120" height="30" fill="#1f2937" stroke="#f472b6" rx="5" ry="5" />
  <text x="500" y="310" class="small-label text-center">適応型パルス生成</text>
  
  <rect x="440" y="330" width="120" height="30" fill="#1f2937" stroke="#f472b6" rx="5" ry="5" />
  <text x="500" y="350" class="small-label text-center">地域同期メカニズム</text>
  
  <rect x="570" y="290" width="120" height="30" fill="#1f2937" stroke="#f472b6" rx="5" ry="5" />
  <text x="630" y="310" class="small-label text-center">異常検出</text>
  
  <rect x="570" y="330" width="120" height="30" fill="#1f2937" stroke="#f472b6" rx="5" ry="5" />
  <text x="630" y="350" class="small-label text-center">レジリエンス強化</text>
  
  <!-- Regional Sharding Component -->
  <rect x="100" y="390" width="280" height="120" class="component" />
  <text x="240" y="410" class="subtitle text-center">地域ベースのシャーディング</text>
  
  <rect x="120" y="430" width="120" height="30" fill="#1f2937" stroke="#f472b6" rx="5" ry="5" />
  <text x="180" y="450" class="small-label text-center">地理的シャード割り当て</text>
  
  <rect x="120" y="470" width="120" height="30" fill="#1f2937" stroke="#f472b6" rx="5" ry="5" />
  <text x="180" y="490" class="small-label text-center">地域環境データの局所処理</text>
  
  <rect x="250" y="430" width="120" height="30" fill="#1f2937" stroke="#f472b6" rx="5" ry="5" />
  <text x="310" y="450" class="small-label text-center">クロスシャード通信の最適化</text>
  
  <rect x="250" y="470" width="120" height="30" fill="#1f2937" stroke="#f472b6" rx="5" ry="5" />
  <text x="310" y="490" class="small-label text-center">災害耐性</text>
  
  <!-- Microchain Component -->
  <rect x="420" y="390" width="280" height="120" class="component" />
  <text x="560" y="410" class="subtitle text-center">マイクロチェーンアーキテクチャ</text>
  
  <rect x="440" y="430" width="120" height="30" fill="#1f2937" stroke="#f472b6" rx="5" ry="5" />
  <text x="500" y="450" class="small-label text-center">機能特化型チェーン</text>
  
  <rect x="440" y="470" width="120" height="30" fill="#1f2937" stroke="#f472b6" rx="5" ry="5" />
  <text x="500" y="490" class="small-label text-center">地域特化型チェーン</text>
  
  <rect x="570" y="430" width="120" height="30" fill="#1f2937" stroke="#f472b6" rx="5" ry="5" />
  <text x="630" y="450" class="small-label text-center">動的チェーン生成</text>
  
  <rect x="570" y="470" width="120" height="30" fill="#1f2937" stroke="#f472b6" rx="5" ry="5" />
  <text x="630" y="490" class="small-label text-center">クロスチェーン通信</text>
  
  <!-- Connecting Arrows -->
  <path d="M240 230 L240 250" class="arrow" />
  <path d="M560 230 L560 250" class="arrow" />
  <path d="M240 370 L240 390" class="arrow" />
  <path d="M560 370 L560 390" class="arrow" />
  
  <!-- GeoGovernance -->
  <rect x="600" y="520" width="150" height="60" fill="#1f2937" stroke="#ec4899" rx="5" ry="5" />
  <text x="675" y="540" class="small-label text-center">GeoGovernance</text>
  <text x="675" y="560" class="small-label text-center">地域の多様性を尊重した</text>
  <text x="675" y="575" class="small-label text-center">分散型ガバナンス</text>
</svg>